<svg version="1.2" xmlns="http://www.w3.org/2000/svg" viewBox="0 0 2560 1440" width="2560" height="1440">
	<style>
		.s0 { opacity: 1;fill: #000000 } 
		.s1 { fill: #000000 } 
	</style>
	<path id="Path 8" class="s0" d="m140 553.5v4.5h1631v-9h-1631z"/>
	<path id="Path 0" fill-rule="evenodd" class="s1" d="m207.5 327.12c11.18-0.09 14.61 0.3 24.5 2.76 6.32 1.57 14.43 4.19 18 5.82 3.57 1.64 8.98 4.55 12 6.48 3.02 1.93 8.09 6.05 11.25 9.16 3.16 3.11 5.77 6 5.79 6.41 0.02 0.41-5.61 6.04-25.04 24.25l-6.25-5.64c-3.44-3.1-8.72-6.87-11.75-8.39-3.03-1.51-7.97-3.48-11-4.37-3.47-1.02-9.19-1.62-15.5-1.61-5.85 0-12.49 0.65-16 1.57-3.3 0.86-8.7 2.99-12 4.72-3.3 1.74-8.7 5.88-12 9.21-3.5 3.52-7.35 8.75-9.23 12.53-1.78 3.56-3.92 9.18-4.76 12.48-0.83 3.3-1.51 10.05-1.51 15 0.01 4.95 0.74 11.93 1.62 15.5 0.88 3.57 3.02 9.18 4.74 12.45 1.73 3.27 5.39 8.39 8.14 11.37 2.75 2.99 7.93 7.16 11.5 9.26 3.57 2.11 9.2 4.53 12.5 5.38 3.59 0.93 10.21 1.54 16.5 1.53 5.78-0.01 12.75-0.6 15.5-1.32 2.75-0.72 7.64-2.63 10.86-4.24 3.23-1.61 8.74-5.52 18.64-14.43l12.5 11.5c6.87 6.32 12.52 11.84 12.54 12.25 0.03 0.41-3.01 3.69-6.75 7.28-3.73 3.6-9.94 8.39-13.79 10.66-3.85 2.27-9.47 5.1-12.5 6.3-3.03 1.2-10.11 3.26-15.75 4.59-7.78 1.84-13.08 2.42-22 2.42-8.16 0.01-14.81-0.64-21.75-2.1-5.5-1.17-12.7-3.09-16-4.28-3.3-1.18-9.6-4.17-14-6.64-5.64-3.16-10.8-7.28-17.5-13.98-5.22-5.23-10.96-11.98-12.74-15-1.78-3.03-4.8-9.1-6.71-13.5-1.97-4.56-4.18-12.08-5.12-17.5-1.19-6.85-1.51-12.85-1.15-21.5 0.28-6.6 1.27-15.15 2.19-19 0.92-3.85 3.48-10.82 5.67-15.5 2.2-4.68 5.94-11.2 8.31-14.5 2.37-3.3 6.96-8.5 10.18-11.55 3.23-3.06 7.9-6.93 10.37-8.62 2.47-1.69 7.43-4.54 11-6.33 3.57-1.8 8.3-3.95 10.5-4.77 2.2-0.82 8.28-2.51 13.5-3.75 7.1-1.69 12.78-2.28 22.5-2.36zm1283 2.86l14.36 33.76c7.89 18.57 19.7 46.47 26.25 62.01 6.54 15.54 12.23 28.06 12.64 27.84 0.41-0.23 12.67-28.12 53.75-123.54l40.5-0.05-1.25 2.79c-0.69 1.54-17.67 40.91-74.25 172.17l-40 0.1-37.38-86.28c-20.56-47.45-37.62-86.84-37.91-87.53-0.41-0.98 4.25-1.25 43.29-1.27zm-1134 0.07l40-0.12 35.93 80.28c19.77 44.16 37.43 83.55 42.57 94.79l-42.5-0.02-15.13-36.48-81.87-0.48-15.03 36.48-20.74 0.25c-12.97 0.16-20.64-0.11-20.48-0.72 0.14-0.53 17.57-39.89 38.75-87.47zm4.75 76.64c-6.57 16.06-12.01 29.44-12.1 29.75-0.08 0.31 12.23 0.56 27.35 0.56 21.53 0 27.42-0.27 27.13-1.25-0.21-0.69-6.13-15.2-13.16-32.25-7.03-17.05-13.06-31.42-13.4-31.93-0.33-0.51-1.34 0.61-2.24 2.5-0.9 1.88-7.01 16.56-13.58 32.62zm131.75-76.69h41.75c30.86 0.01 44.23 0.38 51.25 1.43 5.23 0.77 12.88 2.59 17 4.04 4.13 1.44 9.75 3.91 12.5 5.48 2.75 1.57 7.25 4.86 10 7.3 2.75 2.44 6.69 6.87 8.77 9.84 2.07 2.98 4.94 8.56 6.37 12.41 2.14 5.73 2.7 9.26 3.09 19.5 0.36 9.36 0.07 14.19-1.13 19.25-0.88 3.71-3.01 9.56-4.73 13-2.05 4.11-5.73 8.81-10.75 13.75-4.49 4.42-9.79 8.52-12.9 10-2.9 1.37-5.15 2.83-5 3.24 0.15 0.41 8.72 12.9 19.03 27.75 10.31 14.85 18.75 27.23 18.75 27.51 0 0.27-9.67 0.5-43 0.5l-33.5-48.91-37.5-0.09v49h-40zm40 94c44.03-0.57 45.89-0.74 51.5-2.98 3.3-1.31 7.8-4.04 10-6.06 2.2-2.02 5.01-5.99 6.25-8.82 1.55-3.55 2.28-7.24 2.34-11.89 0.04-3.72-0.41-8.67-1-11-0.74-2.87-2.8-6.05-6.34-9.78-3.93-4.14-6.76-6.07-11.25-7.71-5.37-1.96-8.38-2.23-28.67-2.56l-22.66-0.37zm144-94l42.25-0.01c33.47-0.01 44.12 0.31 51.25 1.53 4.95 0.84 11.25 2.25 14 3.13 2.75 0.88 8.6 3.45 13 5.71 5.28 2.72 10.12 6.25 14.25 10.38 4.53 4.55 7.32 8.52 10.16 14.51 2.15 4.54 4.4 10.62 5 13.5 0.6 2.89 1.08 9.64 1.07 15-0.01 5.37-0.68 12.57-1.5 16-0.82 3.44-2.79 8.84-4.38 12-1.6 3.17-4.33 7.55-6.08 9.75-1.75 2.2-5.51 5.95-8.35 8.32-2.85 2.37-8.21 5.86-11.92 7.75-3.72 1.89-10.02 4.33-14 5.43-3.99 1.1-11.75 2.44-17.25 2.97-5.5 0.54-18.44 0.99-47.5 1.03v48h-40zm40 94c27.51-0.03 38.53-0.48 42.25-1.02 3.71-0.54 8.88-1.87 11.5-2.97 2.61-1.1 6.41-3.68 8.45-5.75 2.03-2.07 4.62-5.89 5.75-8.51 1.34-3.11 2.08-7.07 2.13-11.5 0.05-3.71-0.4-8.66-1-11-0.73-2.86-2.79-6.04-6.33-9.77-3.94-4.14-6.76-6.08-11.25-7.72-5.37-1.96-8.39-2.23-28.67-2.55l-22.67-0.37zm381-94h42.75c25.03 0 46.48 0.46 51.75 1.11 4.95 0.6 12.38 1.95 16.5 3 4.13 1.04 12.45 4.34 18.5 7.33 8.51 4.21 12.81 7.12 19 12.84 4.4 4.08 10.24 10.74 12.97 14.81 2.73 4.08 6.19 10.33 7.69 13.91 1.51 3.57 3.49 9.87 4.41 14 1.08 4.84 1.68 12.1 1.7 20.5 0.02 10-0.47 15.02-2.12 21.75-1.18 4.81-3.53 11.79-5.22 15.5-1.68 3.71-5 9.45-7.37 12.75-2.36 3.3-7.39 8.94-11.18 12.53-3.78 3.6-10.25 8.51-14.38 10.92-4.12 2.4-10.42 5.47-14 6.82-3.57 1.35-10.55 3.36-15.5 4.48-8.23 1.86-13.14 2.06-105.5 2.75zm40 142c44.24-0.58 50.78-1.01 55.5-2.34 3.3-0.93 8.88-3.15 12.41-4.93 3.52-1.78 8.7-5.52 11.5-8.32 2.8-2.8 6.51-7.75 8.25-11 1.74-3.25 3.96-8.61 4.93-11.91 1.18-4.02 1.76-9.31 1.74-16-0.01-6.48-0.63-12.11-1.76-16-0.96-3.3-3.05-8.48-4.64-11.5-1.6-3.03-5.27-7.88-8.16-10.78-2.9-2.91-8.19-6.82-11.77-8.69-3.57-1.88-9.42-4.15-13-5.06-4.76-1.22-12.93-1.8-30.62-2.19l-24.13-0.53zm166-142h132l-0.5 32.5-91.5 0.5v37h81v32h-81v40h95v33h-135zm-381 89h71v31h-71z"/>
	<path id="Path 0" fill-rule="evenodd" class="s1" d="m452.56 595.07c-1.51 1.14-2.72 2.83-2.69 3.75 0.04 0.93 0.87 2.46 1.85 3.4 0.98 0.95 2.9 1.76 4.28 1.79 1.37 0.03 3.28-0.75 4.22-1.73 0.95-0.98 1.75-2.46 1.78-3.28 0.03-0.83-0.97-2.5-2.22-3.73-1.26-1.22-2.77-2.24-3.38-2.25-0.6-0.01-2.33 0.91-3.84 2.05zm99 0c-1.51 1.14-2.72 2.83-2.69 3.75 0.04 0.93 0.87 2.46 1.85 3.4 0.98 0.95 2.9 1.76 4.28 1.79 1.37 0.03 3.28-0.75 4.22-1.73 0.95-0.98 1.75-2.46 1.78-3.28 0.03-0.83-0.97-2.5-2.22-3.73-1.26-1.22-2.77-2.24-3.38-2.25-0.6-0.01-2.33 0.91-3.84 2.05zm484 0c-1.51 1.14-2.72 2.83-2.69 3.75 0.04 0.93 0.87 2.46 1.85 3.4 0.98 0.95 2.9 1.76 4.28 1.79 1.37 0.03 3.28-0.75 4.22-1.73 0.95-0.98 1.75-2.46 1.78-3.28 0.03-0.83-0.97-2.5-2.22-3.73-1.26-1.22-2.77-2.24-3.38-2.25-0.6-0.01-2.33 0.91-3.84 2.05zm688.44 8.43c0 6.71-0.18 7.44-1.75 6.89-0.96-0.33-3.21-1.01-5-1.5-1.99-0.55-4.8-0.5-7.25 0.11-2.2 0.55-5.24 2.06-6.75 3.36-1.51 1.29-3.31 4.1-3.98 6.25-0.68 2.14-1.25 5.24-1.26 6.89-0.02 1.65 0.99 4.99 2.23 7.43 1.42 2.78 3.56 5.1 5.76 6.25 1.92 1 5.53 1.82 8 1.82 2.47-0.01 5.74-0.68 7.25-1.51 2.44-1.32 2.75-1.32 2.75 0.01 0 1.1 1.14 1.5 4.25 1.51h4.25c0.97-16.67 1.11-26.8 0.93-33.26l-0.31-11.75h-9.12zm-13.44 14.57c1.51-1.14 3.91-2.07 5.34-2.08 1.43 0 3.61 0.67 4.85 1.5 1.39 0.93 2.48 2.94 2.84 5.26 0.33 2.06 0.12 4.87-0.47 6.25-0.58 1.37-2.31 3.09-3.84 3.8-1.8 0.84-3.81 1.02-5.68 0.5-1.6-0.44-3.52-1.7-4.26-2.8-0.75-1.1-1.39-3.88-1.44-6.18-0.07-3.44 0.39-4.54 2.66-6.25zm-1572.81-19.01c-2.06 0.52-4.99 1.55-6.5 2.31-1.51 0.75-4.04 2.89-5.61 4.75-1.58 1.86-3.5 4.95-4.28 6.88-0.77 1.92-1.4 5.41-1.38 7.75 0.01 2.42 0.93 5.87 2.12 8 1.15 2.06 3.06 4.81 4.25 6.1 1.18 1.29 3.95 3.3 6.15 4.47 2.93 1.55 5.74 2.1 10.5 2.08 4.23-0.03 7.72-0.67 10-1.84 1.92-0.99 4.3-2.53 5.28-3.43 0.98-0.9 1.78-1.86 1.77-2.13 0-0.28-1.37-1.51-3.03-2.75l-3.02-2.25c-4.72 3.49-7 4.06-10.75 4.03-4.1-0.02-5.91-0.58-8.25-2.53-1.79-1.49-3.47-4.22-4.16-6.75-0.88-3.22-0.88-5.16 0-8 0.64-2.06 2.51-4.88 4.16-6.25 2.34-1.95 4.15-2.51 8.25-2.53 3.75-0.03 6.03 0.54 8 2l2.75 2.03c4.68-3.49 6.05-4.73 6.05-5 0.01-0.28-0.79-1.23-1.77-2.13-0.98-0.9-3.13-2.31-4.78-3.15-1.65-0.83-5.03-1.76-7.5-2.06-2.48-0.29-6.19-0.11-8.25 0.4zm198.79-2.44c-0.48 0.39-0.8 10.54-0.71 22.55l0.17 21.83h10l-0.5-44.5c-6.26-0.46-8.47-0.27-8.96 0.12zm470 0c-0.48 0.39-0.8 10.54-0.71 22.55l0.17 21.83c7.61 0 9.15-0.46 9.5-1.5 0.44-1.33 0.75-1.33 2.75 0.01 1.24 0.83 4.49 1.51 7.25 1.53 3.56 0.01 6.01-0.65 8.5-2.28 1.92-1.27 4.29-3.87 5.25-5.78 0.96-1.91 1.75-5.62 1.75-8.23 0-2.61-0.79-6.38-1.75-8.37-0.96-1.99-3.1-4.42-4.75-5.41-1.65-0.99-4.76-2.1-6.92-2.47-2.68-0.45-5.05-0.16-7.5 0.94-1.97 0.89-3.69 1.6-3.83 1.58-0.14-0.01-0.36-3.28-0.5-7.27l-0.25-7.25c-6.26-0.46-8.47-0.27-8.96 0.12zm12.02 21.45c1.51-1.14 3.8-2.07 5.09-2.07 1.29 0 3.09 0.34 3.99 0.75 0.9 0.41 2.25 1.99 3 3.5 0.75 1.51 1.36 3.65 1.36 4.75 0 1.1-0.56 3.13-1.25 4.52-0.69 1.38-2.38 2.98-3.75 3.55-1.46 0.6-3.71 0.7-5.4 0.23-1.6-0.44-3.52-1.7-4.26-2.8-0.75-1.1-1.39-3.88-1.44-6.18-0.07-3.44 0.39-4.54 2.66-6.25zm450.98-21.45c-0.48 0.39-0.8 10.54-0.71 22.55l0.17 21.83h10l-0.5-44.5c-6.26-0.46-8.47-0.27-8.96 0.12zm-885.9 5.63c-0.76 1.79-4.88 10.96-9.15 20.39-4.27 9.43-7.71 17.42-7.63 17.75 0.08 0.34 2.28 0.61 4.89 0.61 4.7-0.01 4.77-0.05 6.5-4.5l1.75-4.5h20c3.49 9.04 3.53 9.07 8.25 9.03 2.61-0.01 4.75-0.26 4.75-0.53 0-0.28-4.16-9.74-9.25-21.04l-9.25-20.53c-9.12 0.07-9.58 0.31-10.86 3.32zm2.94 14.25c1.43-3.58 3.11-6.5 3.74-6.5 0.64 0 2.18 3.04 3.42 6.75 1.24 3.71 2.25 7.09 2.26 7.5 0 0.41-2.7 0.75-6 0.75-3.33 0-6-0.44-6-1 0-0.55 1.16-3.93 2.58-7.5zm266.52 3.4l-0.1 21.1h10v-12c8.33 0 8.66 0.23 12.5 5.97l4 5.97 10.5 0.06-9-13c7.64-7.23 7.94-7.9 7.96-13 0.02-3.78-0.59-6.51-1.96-8.75-1.1-1.79-3.46-4.02-5.25-4.97-2.43-1.29-6.43-1.82-15.9-2.1l-12.64-0.38zm10.14-13.13l6.34 0.36c3.82 0.22 6.95 0.96 7.9 1.87 0.86 0.82 1.67 2.92 1.79 4.65 0.14 2.01-0.5 3.92-1.78 5.28-1.63 1.75-3.13 2.13-14.5 2.07l0.13-7.12zm327.85 13.14l-0.1 21.1h10c0-10.84 0.08-11 2.75-11.01 1.51 0 5.67-0.54 9.25-1.19 5.2-0.95 7.24-1.9 10.22-4.75 3.39-3.25 3.72-4.03 3.74-9.05 0.02-3.79-0.59-6.52-1.97-8.75-1.09-1.79-3.45-4.03-5.24-4.97-2.43-1.29-6.43-1.82-15.9-2.1l-12.65-0.38zm10.15-13.14l6.33 0.37c3.83 0.22 6.96 0.96 7.91 1.87 0.86 0.82 1.67 2.91 1.79 4.65 0.14 2.01-0.5 3.92-1.78 5.28-1.63 1.74-3.14 2.12-14.5 2.07l0.13-7.12zm108.87 13.12l-0.12 21.11c18.24-0.02 25.24-0.58 27.39-1.26 2.14-0.68 5.71-2.81 7.92-4.74 2.22-1.92 4.63-4.96 5.36-6.75 0.73-1.79 1.33-5.5 1.33-8.25 0-2.93-0.79-6.55-1.91-8.75-1.04-2.06-2.95-4.71-4.25-5.88-1.29-1.17-3.92-2.95-5.84-3.95-2.7-1.39-6.52-1.91-16.63-2.23l-13.13-0.42zm10.16-13.15l7.11 0.47c3.91 0.26 8.1 1.1 9.31 1.88 1.21 0.78 2.9 2.65 3.75 4.17 0.85 1.51 1.55 4.55 1.55 6.75 0 2.2-0.79 5.35-1.75 7.01-0.97 1.66-3.22 3.69-5 4.5-1.79 0.82-5.95 1.49-15.25 1.49l0.14-13.14zm433.72 13.27v21c19.76-0.01 27.3-0.53 29.5-1.15 2.2-0.63 5.01-2.21 6.25-3.5 1.65-1.73 2.25-3.55 2.25-6.85 0-3.67-0.56-5.06-3-7.5l-3-3c3.15-4.26 4.05-6.96 4.03-8.75-0.02-1.79-0.48-4.15-1.03-5.25-0.55-1.1-2.92-2.89-5.25-3.98-3.53-1.64-6.43-1.98-17-2l-12.75-0.02zm10-14h5.5c3.02 0 6.51 0.38 7.75 0.85 1.23 0.47 2.55 1.71 2.91 2.75 0.37 1.05 0.03 2.9-0.75 4.15-1.25 1.98-2.24 2.25-15.41 2.25v-5zm0.22 16.79l7.84 0.35c4.31 0.2 8.34 0.81 8.95 1.36 0.62 0.55 1.12 2.35 1.12 4 0 1.65-0.5 3.45-1.12 4-0.61 0.55-4.69 1.11-17.01 1.5l0.11-5.61zm-1317.68-21.17c-0.48 0.4-0.8 2.22-0.71 4.05 0.15 2.93-0.13 3.33-2.33 3.33-2.2 0-2.5 0.44-2.5 3.5 0 2.97 0.34 3.5 2.25 3.5 2.13-0.01 2.28 0.5 2.93 9.75 0.65 9.23 0.85 9.9 3.75 12.5 2.53 2.27 3.99 2.75 8.32 2.74 2.88-0.01 5.81-0.35 6.5-0.75 0.94-0.55 1-1.56 0.25-3.99-0.85-2.76-1.38-3.17-3.5-2.75-1.38 0.28-3.2-0.06-4.05-0.75-1.16-0.94-1.53-3.17-1.5-9l0.05-7.75c7.9 0 8-0.08 8-3.5 0-3.41-0.1-3.5-4-3.5-3.92 0-4.01-0.08-4.25-3.75-0.25-3.61-0.4-3.76-4.29-4.04-2.22-0.17-4.44 0.02-4.92 0.41zm1265 0c-0.48 0.4-0.8 2.22-0.71 4.05 0.15 2.93-0.13 3.33-2.33 3.33-2.2 0-2.5 0.44-2.5 3.5 0 2.97 0.34 3.5 2.25 3.5 2.13-0.01 2.28 0.5 2.93 9.75 0.65 9.23 0.85 9.9 3.75 12.5 2.53 2.27 3.99 2.75 8.32 2.74 2.88-0.01 5.81-0.35 6.5-0.75 0.94-0.55 1-1.56 0.25-3.99-0.85-2.76-1.38-3.17-3.5-2.75-1.38 0.28-3.2-0.06-4.05-0.75-1.16-0.94-1.53-3.17-1.5-9l0.05-7.75c7.9 0 8-0.08 8-3.5 0-3.41-0.1-3.5-4-3.5-3.92 0-4.01-0.08-4.25-3.75-0.25-3.61-0.4-3.76-4.29-4.04-2.22-0.17-4.44 0.02-4.92 0.41zm-1338.04 7.84c-2.2 0.8-5.47 3.05-7.25 5-1.79 1.95-3.53 5.01-3.87 6.79-0.33 1.79-0.33 4.94 0 7 0.34 2.07 1.85 5.18 3.37 6.92 1.51 1.74 4.21 3.77 6 4.5 1.78 0.73 5.38 1.33 8 1.32 2.62-0.01 6.54-0.88 8.75-1.95 2.65-1.28 4.8-3.38 6.39-6.23 1.9-3.41 2.31-5.35 1.96-9.31-0.24-2.78-1.35-6.33-2.49-8-1.14-1.65-3.6-3.76-5.47-4.69-1.87-0.92-5.19-1.94-7.39-2.25-2.4-0.33-5.61 0.03-8 0.9zm0.87 8.86c1.51-1.27 3.96-2.3 5.44-2.28 1.48 0.01 3.4 0.58 4.27 1.25 0.87 0.67 2.16 2.34 2.86 3.71 0.74 1.45 1.02 3.87 0.67 5.75-0.36 1.88-1.78 4.13-3.36 5.33-2 1.51-3.58 1.92-5.75 1.48-1.65-0.34-3.83-1.38-4.84-2.33-1.2-1.13-1.86-3.26-1.93-6.16-0.08-3.67 0.38-4.83 2.64-6.75zm43.63-8.69c-3.09 1.09-4.58 1.25-4.75 0.48-0.14-0.61-2.27-1.11-4.75-1.11h-4.5v32h10c0-19.27 0.17-20.18 2.45-22.5 1.35-1.37 3.37-2.5 4.5-2.5 1.12 0 3.17 1.13 4.55 2.5 2.33 2.34 2.5 3.17 2.5 12.5v10h9c-0.01-21.73-0.31-23.98-2.01-26.75-1.1-1.78-2.78-3.65-3.74-4.15-0.97-0.5-3.33-1.17-5.25-1.49-2.1-0.34-5.31 0.06-8 1.02zm68.5-0.52c-1.65 0.51-3.57 1.38-4.25 1.91-0.87 0.68-1.41 0.52-1.75-0.52-0.35-1.03-1.89-1.5-5-1.5h-4.5v32h10c-0.06-19.16 0.04-19.57 2.67-21.75 1.51-1.23 3.77-2.25 5.03-2.25 2.05 0 2.3-0.47 2.3-4.5 0-2.47-0.34-4.46-0.75-4.41-0.42 0.05-2.1 0.51-3.75 1.02zm19 0.35c-2.2 0.8-5.47 3.05-7.25 5-1.79 1.95-3.53 5.01-3.87 6.79-0.33 1.79-0.33 4.94 0 7 0.34 2.07 1.85 5.18 3.37 6.92 1.51 1.74 4.21 3.77 6 4.5 1.78 0.73 5.38 1.33 8 1.32 2.62-0.01 6.54-0.88 8.75-1.95 2.65-1.28 4.8-3.38 6.39-6.23 1.9-3.41 2.31-5.35 1.96-9.31-0.24-2.78-1.35-6.33-2.49-8-1.14-1.65-3.6-3.76-5.47-4.69-1.87-0.92-5.19-1.94-7.39-2.25-2.4-0.33-5.61 0.03-8 0.9zm0.87 8.86c1.51-1.27 3.96-2.3 5.44-2.28 1.48 0.01 3.4 0.58 4.27 1.25 0.87 0.67 2.16 2.34 2.86 3.71 0.74 1.45 1.02 3.87 0.67 5.75-0.36 1.88-1.78 4.13-3.36 5.33-2 1.51-3.58 1.92-5.75 1.48-1.65-0.34-3.83-1.38-4.84-2.33-1.2-1.13-1.86-3.26-1.93-6.16-0.08-3.67 0.38-4.83 2.64-6.75zm172.13-8.86c-2.2 0.8-5.47 3.05-7.25 5-1.79 1.95-3.53 5.01-3.87 6.79-0.33 1.79-0.33 4.94 0 7 0.34 2.07 1.85 5.18 3.37 6.92 1.51 1.74 4.21 3.77 6 4.5 1.78 0.73 5.38 1.33 8 1.32 2.62-0.01 6.54-0.88 8.75-1.95 2.65-1.28 4.8-3.38 6.39-6.23 1.9-3.41 2.31-5.35 1.96-9.31-0.24-2.78-1.35-6.33-2.49-8-1.14-1.65-3.6-3.76-5.47-4.69-1.87-0.92-5.19-1.94-7.39-2.25-2.4-0.33-5.61 0.03-8 0.9zm0.87 8.86c1.51-1.27 3.96-2.3 5.44-2.28 1.48 0.01 3.4 0.58 4.27 1.25 0.87 0.67 2.16 2.34 2.86 3.71 0.74 1.45 1.02 3.87 0.67 5.75-0.36 1.88-1.78 4.13-3.36 5.33-2 1.51-3.58 1.92-5.75 1.48-1.65-0.34-3.83-1.38-4.84-2.33-1.2-1.13-1.86-3.26-1.93-6.16-0.08-3.67 0.38-4.83 2.64-6.75zm42.63-8.69c-3.09 1.09-4.58 1.25-4.75 0.48-0.14-0.61-2.27-1.11-4.75-1.11h-4.5v32h10c0-19.27 0.17-20.18 2.45-22.5 1.35-1.37 3.37-2.5 4.5-2.5 1.12 0 3.17 1.13 4.55 2.5 2.33 2.34 2.5 3.17 2.5 12.5v10h9c-0.01-21.73-0.31-23.98-2.01-26.75-1.1-1.78-2.78-3.65-3.74-4.15-0.97-0.5-3.33-1.17-5.25-1.49-2.1-0.34-5.31 0.06-8 1.02zm55.5-0.12c-2.2 0.77-5.47 3-7.25 4.95-1.79 1.95-3.53 5.01-3.87 6.79-0.33 1.79-0.33 4.94 0 7 0.36 2.22 1.95 5.21 3.87 7.31 1.78 1.96 4.82 4.04 6.75 4.63 1.92 0.59 6.05 0.9 9.17 0.69 4.67-0.31 6.23-0.91 8.77-3.38 1.7-1.65 3.09-3.33 3.08-3.75-0.02-0.41-1.49-1.58-3.27-2.61-3.25-1.85-3.26-1.85-6.25 0.61-2.32 1.91-3.69 2.33-6 1.84-1.65-0.35-3.83-1.41-4.84-2.36-1.23-1.17-1.84-3.19-1.86-6.23-0.03-3.63 0.47-4.93 2.58-6.75 1.44-1.23 3.85-2.26 5.37-2.28 1.51-0.02 3.98 0.88 5.5 2 2.65 1.96 2.85 1.97 5.76 0.28 1.65-0.96 3.01-1.97 3.02-2.25 0-0.27-1.24-1.69-2.76-3.15-1.53-1.46-4.57-3.15-6.77-3.75-2.2-0.6-4.68-1.07-5.5-1.05-0.83 0.02-3.3 0.68-5.5 1.46zm31 0.01c-2.2 0.78-4.59 2.23-5.3 3.21-0.71 0.97-1.55 2.67-1.86 3.77-0.31 1.1-0.29 3.24 0.05 4.75 0.33 1.52 1.62 3.41 2.86 4.21 1.23 0.8 5.17 2.04 8.75 2.75 5.4 1.08 6.5 1.63 6.5 3.29 0 1.66-0.78 2.06-4.5 2.33-2.48 0.18-6.08-0.33-8-1.14l-3.5-1.48-3.5 6.79c6.43 2.76 9.69 3.11 15.18 2.86 6.95-0.32 7.98-0.64 10.77-3.36 2.29-2.22 3.09-3.9 3.09-6.5q0.01-3.5-2.27-5.69c-1.25-1.2-4.52-2.67-7.27-3.25-2.75-0.59-6.02-1.29-7.25-1.56-1.24-0.27-2.25-1.17-2.25-2 0-0.82 0.79-1.99 1.76-2.59 1.03-0.64 3.41-0.82 5.75-0.43 2.19 0.36 4.89 0.89 5.99 1.16 1.47 0.37 2.33-0.24 3.28-2.32 0.71-1.55 0.94-3.17 0.5-3.61-0.43-0.43-2.81-1.2-5.28-1.7-2.48-0.51-5.63-0.92-7-0.92-1.38 0-4.3 0.64-6.5 1.43zm93.67-0.37c-2.38 0.52-4.74 1.59-5.25 2.4-0.59 0.93-0.48 2.37 0.33 4.03 0.95 1.97 1.71 2.41 3.25 1.87 1.1-0.39 4.02-0.92 6.5-1.19 3.26-0.35 4.97-0.04 6.25 1.13 0.96 0.89 1.75 2.29 1.75 3.11 0 1.17-1.55 1.56-6.93 1.75-5.05 0.19-7.65 0.79-9.65 2.25-1.5 1.1-3.15 3.35-3.67 5-0.67 2.14-0.56 3.83 0.4 5.89 0.74 1.59 2.58 3.5 4.1 4.25 1.51 0.75 4.66 1.36 7 1.36 2.33-0.01 5.48-0.68 7-1.5 2.44-1.33 2.75-1.33 2.75 0 0 1.11 1.16 1.5 4.5 1.5h4.5c-0.5-24.75-0.53-24.9-3.5-27.97-1.65-1.7-4.58-3.53-6.5-4.06-1.93-0.52-4.63-0.91-6-0.85-1.38 0.05-4.45 0.52-6.83 1.03zm1.94 20.35c0.75-1.01 2.87-1.5 6.5-1.5 3.65 0 5.38 0.41 5.37 1.25-0.01 0.69-0.35 1.75-0.75 2.35-0.4 0.61-1.75 1.62-2.98 2.25-1.24 0.64-3.38 1.15-4.75 1.15-1.5 0-2.9-0.8-3.5-2-0.69-1.37-0.66-2.47 0.11-3.5zm34.39-19.98c-2.2 0.78-4.59 2.23-5.3 3.21-0.71 0.97-1.55 2.67-1.86 3.77-0.31 1.1-0.29 3.24 0.05 4.75 0.33 1.52 1.62 3.41 2.86 4.21 1.23 0.8 5.17 2.04 8.75 2.75 5.4 1.08 6.5 1.63 6.5 3.29 0 1.66-0.78 2.06-4.5 2.33-2.48 0.18-6.08-0.33-8-1.14l-3.5-1.48-3.5 6.79c6.43 2.76 9.69 3.11 15.18 2.86 6.95-0.32 7.98-0.64 10.77-3.36 2.29-2.22 3.09-3.9 3.09-6.5q0.01-3.5-2.27-5.69c-1.25-1.2-4.52-2.67-7.27-3.25-2.75-0.59-6.02-1.29-7.25-1.56-1.24-0.27-2.25-1.17-2.25-2 0-0.82 0.79-1.99 1.76-2.59 1.03-0.64 3.41-0.82 5.75-0.43 2.19 0.36 4.89 0.89 5.99 1.16 1.47 0.37 2.33-0.24 3.28-2.32 0.71-1.55 0.94-3.17 0.5-3.61-0.43-0.43-2.81-1.2-5.28-1.7-2.48-0.51-5.63-0.92-7-0.92-1.38 0-4.3 0.64-6.5 1.43zm40-0.05c-2.36 0.87-4.11 1.08-4.25 0.51-0.14-0.54-2.28-0.98-4.75-0.98h-4.5l0.5 43.5 9.5 0.5v-15c3.49 2.34 6.73 3.03 9.5 3.04 3.55 0.01 6-0.64 8.5-2.28 1.92-1.26 4.28-3.86 5.24-5.78 0.97-1.91 1.75-5.61 1.75-8.23 0-2.61-0.78-6.37-1.74-8.36-0.97-1.99-3.1-4.44-4.75-5.44-1.65-1-4.8-2.08-7-2.39-2.42-0.34-5.59 0.02-8 0.91zm-0.95 8.61c1.51-1.14 3.81-2.08 5.1-2.08 1.29 0 3.08 0.34 3.99 0.75 0.9 0.42 2.25 1.99 3 3.5 0.74 1.52 1.36 3.65 1.36 4.75 0 1.1-0.57 3.14-1.25 4.52-0.69 1.39-2.38 2.98-3.75 3.55-1.46 0.6-3.72 0.7-5.41 0.24-1.6-0.45-3.51-1.71-4.26-2.81-0.74-1.1-1.39-3.88-1.44-6.17-0.07-3.45 0.4-4.55 2.66-6.25zm80.45-8.89c-1.93 0.57-4.55 1.78-5.83 2.68-1.28 0.9-3.26 3.66-4.4 6.13-1.56 3.38-1.93 5.63-1.49 9 0.33 2.48 1.46 5.63 2.53 7 1.06 1.38 3.15 3.4 4.63 4.5 1.89 1.4 4.73 2.12 9.38 2.38 4.77 0.26 7.6-0.09 9.93-1.25 1.78-0.9 3.47-2.08 3.75-2.63 0.27-0.55-0.52-2.11-1.75-3.46-2.11-2.31-2.43-2.37-5-1-1.52 0.8-3.88 1.46-5.25 1.46-1.38 0-3.52-0.51-4.75-1.15-1.24-0.63-2.59-1.64-2.99-2.25-0.4-0.6-0.74-1.43-0.75-1.85-0.01-0.41 5.27-0.86 11.74-1l11.75-0.25c-0.21-6.2-1-9.46-1.89-11.25-0.89-1.78-3.08-4.1-4.86-5.14-1.79-1.04-5.05-2.14-7.25-2.43-2.2-0.3-5.58-0.07-7.5 0.51zm-0.33 9.06c1.74-1.78 3.88-3.25 4.75-3.25 0.87 0 2.81 0.62 4.33 1.36 1.51 0.75 3.09 2.21 3.51 3.25 0.41 1.04 0.46 2.03 0.1 2.19-0.36 0.16-4.08 0.16-15.86-0.3zm43.82-9.14c-1.65 0.51-3.56 1.38-4.25 1.91-0.86 0.68-1.4 0.52-1.75-0.52-0.34-1.03-1.89-1.5-5-1.5h-4.5v32h10c-0.05-19.16 0.04-19.57 2.68-21.75 1.5-1.23 3.76-2.25 5.03-2.25 2.05 0 2.29-0.47 2.29-4.5 0-2.47-0.34-4.46-0.75-4.41-0.41 0.05-2.1 0.51-3.75 1.02zm25 0c-1.65 0.51-3.56 1.38-4.25 1.91-0.86 0.68-1.4 0.52-1.75-0.52-0.34-1.03-1.89-1.5-5-1.5h-4.5v32h10c-0.05-19.16 0.04-19.57 2.68-21.75 1.5-1.23 3.76-2.25 5.03-2.25 2.05 0 2.29-0.47 2.29-4.5 0-2.47-0.34-4.46-0.75-4.41-0.41 0.05-2.1 0.51-3.75 1.02zm242.5 0.08c-1.92 0.57-4.55 1.78-5.83 2.68-1.28 0.9-3.26 3.66-4.4 6.13-1.55 3.38-1.92 5.63-1.48 9 0.33 2.48 1.46 5.63 2.52 7 1.07 1.38 3.15 3.4 4.64 4.5 1.89 1.4 4.72 2.12 9.38 2.38 4.77 0.26 7.6-0.09 9.92-1.25 1.79-0.9 3.48-2.08 3.75-2.63 0.28-0.55-0.51-2.11-1.75-3.46-2.1-2.31-2.42-2.37-5-1-1.51 0.8-3.87 1.46-5.25 1.46-1.37 0-3.51-0.51-4.75-1.15-1.24-0.63-2.58-1.64-2.98-2.25-0.41-0.6-0.74-1.43-0.75-1.85-0.01-0.41 5.27-0.86 11.73-1l11.75-0.25c-0.2-6.2-0.99-9.46-1.88-11.25-0.89-1.78-3.08-4.1-4.87-5.14-1.79-1.04-5.05-2.14-7.25-2.43-2.2-0.3-5.57-0.07-7.5 0.51zm-0.32 9.06c1.74-1.78 3.88-3.25 4.75-3.25 0.86 0 2.81 0.62 4.32 1.36 1.51 0.75 3.09 2.21 3.51 3.25 0.42 1.04 0.47 2.03 0.11 2.19-0.36 0.16-4.08 0.16-15.87-0.3zm72.33-9.06c-1.93 0.57-4.55 1.78-5.83 2.68-1.28 0.9-3.26 3.66-4.4 6.13-1.55 3.38-1.92 5.63-1.48 9 0.32 2.48 1.46 5.63 2.52 7 1.06 1.38 3.15 3.4 4.64 4.5 1.89 1.4 4.72 2.12 9.38 2.38 4.77 0.26 7.6-0.09 9.92-1.25 1.79-0.9 3.47-2.08 3.75-2.63 0.27-0.55-0.51-2.11-1.75-3.46-2.11-2.31-2.43-2.37-5-1-1.51 0.8-3.88 1.46-5.25 1.46-1.38 0-3.51-0.51-4.75-1.15-1.24-0.63-2.58-1.64-2.99-2.25-0.4-0.6-0.74-1.43-0.75-1.85 0-0.41 5.28-0.86 11.74-1l11.75-0.25c-0.21-6.2-1-9.46-1.88-11.25-0.89-1.78-3.08-4.1-4.87-5.14-1.79-1.04-5.05-2.14-7.25-2.43-2.2-0.3-5.58-0.07-7.5 0.51zm-0.33 9.06c1.75-1.78 3.89-3.25 4.75-3.25 0.87 0 2.82 0.62 4.33 1.36 1.51 0.75 3.09 2.21 3.51 3.25 0.42 1.04 0.47 2.03 0.11 2.19-0.36 0.16-4.08 0.16-15.87-0.3zm55.83-8.79c-2.2 0.8-5.47 3.05-7.25 5-1.79 1.95-3.53 5.01-3.87 6.79-0.33 1.79-0.33 4.94 0 7 0.34 2.07 1.85 5.18 3.37 6.92 1.51 1.74 4.21 3.77 6 4.5 1.78 0.73 5.38 1.33 8 1.32 2.62-0.01 6.54-0.88 8.75-1.95 2.65-1.28 4.8-3.38 6.39-6.23 1.9-3.41 2.31-5.35 1.96-9.31-0.24-2.78-1.35-6.33-2.49-8-1.14-1.65-3.6-3.76-5.47-4.69-1.86-0.92-5.19-1.94-7.39-2.25-2.4-0.33-5.6 0.03-8 0.9zm0.88 8.86c1.5-1.27 3.95-2.3 5.43-2.28 1.48 0.01 3.4 0.58 4.27 1.25 0.88 0.67 2.16 2.34 2.86 3.71 0.74 1.45 1.02 3.87 0.67 5.75-0.36 1.88-1.78 4.13-3.36 5.33-2 1.51-3.58 1.92-5.75 1.48-1.65-0.34-3.83-1.38-4.84-2.33-1.2-1.13-1.86-3.26-1.93-6.16-0.08-3.67 0.38-4.83 2.65-6.75zm42.12-8.85c-2.36 0.87-4.11 1.08-4.25 0.51-0.14-0.54-2.28-0.98-4.75-0.98h-4.5l0.5 43.5 9.5 0.5v-15c3.49 2.34 6.73 3.03 9.5 3.04 3.56 0.01 6-0.64 8.5-2.28 1.92-1.26 4.28-3.86 5.24-5.78 0.97-1.91 1.75-5.61 1.75-8.23 0.01-2.61-0.78-6.37-1.74-8.36-0.97-1.99-3.1-4.44-4.75-5.44-1.65-1-4.8-2.08-7-2.39-2.42-0.34-5.59 0.02-8 0.91zm-0.95 8.61c1.51-1.14 3.81-2.08 5.1-2.08 1.29 0 3.08 0.34 3.99 0.75 0.9 0.42 2.25 1.99 3 3.5 0.74 1.52 1.36 3.65 1.36 4.75 0 1.1-0.57 3.14-1.25 4.52-0.69 1.39-2.38 2.98-3.75 3.55-1.46 0.6-3.72 0.7-5.41 0.24-1.6-0.45-3.51-1.71-4.26-2.81-0.74-1.1-1.39-3.88-1.44-6.17-0.07-3.45 0.4-4.55 2.66-6.25zm41.95-8.37c-2.89 1.2-4.07 1.33-4.25 0.48-0.15-0.7-2.09-1.19-4.75-1.19h-4.5v32h10c0-20.79 0.05-21.04 2.75-23.03 1.51-1.12 3.31-2.02 4-2 0.68 0.02 2.37 1.16 3.75 2.53 2.33 2.34 2.5 3.17 2.5 12.5v10h9c0.43-18.19 0.89-21.31 2-22.4 0.82-0.8 2.73-1.72 4.25-2.03 1.95-0.4 3.32 0.01 4.75 1.43 1.74 1.75 2 3.34 2 12.5v10.5h10c0-17.29-0.52-22.32-1.46-24.75-0.8-2.06-2.6-4.53-4-5.5-1.4-0.96-4.23-2-6.29-2.31-2.81-0.43-5.01 0.06-8.75 1.92-4.93 2.46-5.04 2.47-7.5 0.62-1.38-1.03-4.08-2.11-6-2.4-2.15-0.33-5.06 0.11-7.5 1.13zm60.5-0.52c-1.93 0.57-4.55 1.78-5.83 2.68-1.28 0.9-3.26 3.66-4.4 6.13-1.56 3.38-1.93 5.63-1.49 9 0.33 2.48 1.46 5.63 2.53 7 1.06 1.38 3.15 3.4 4.63 4.5 1.89 1.4 4.73 2.12 9.38 2.38 4.78 0.26 7.6-0.09 9.93-1.25 1.78-0.9 3.47-2.08 3.75-2.63 0.27-0.55-0.52-2.11-1.75-3.46-2.11-2.31-2.43-2.37-5-1-1.52 0.8-3.88 1.46-5.25 1.46-1.38 0-3.52-0.51-4.75-1.15-1.24-0.63-2.58-1.64-2.99-2.25-0.4-0.6-0.74-1.43-0.75-1.85-0.01-0.41 5.27-0.86 11.74-1l11.75-0.25c-0.21-6.2-1-9.46-1.89-11.25-0.89-1.78-3.08-4.1-4.86-5.14-1.79-1.04-5.05-2.14-7.25-2.43-2.2-0.3-5.58-0.07-7.5 0.51zm-0.33 9.06c1.74-1.78 3.88-3.25 4.75-3.25 0.87 0 2.81 0.62 4.33 1.36 1.51 0.75 3.09 2.21 3.51 3.25 0.42 1.04 0.46 2.03 0.1 2.19-0.36 0.16-4.08 0.16-15.86-0.3zm41.32-8.62c-3.08 1.09-4.58 1.25-4.75 0.48-0.13-0.61-2.27-1.11-4.75-1.11h-4.5v32h10c0-19.27 0.18-20.18 2.46-22.5 1.35-1.37 3.37-2.5 4.5-2.5 1.12 0 3.17 1.13 4.54 2.5 2.34 2.34 2.5 3.17 2.5 12.5v10h9c0-21.73-0.3-23.98-2-26.75-1.1-1.78-2.78-3.65-3.75-4.15-0.96-0.5-3.32-1.17-5.25-1.49-2.1-0.34-5.3 0.06-8 1.02zm126.5-0.17c-2.2 0.8-5.46 3.05-7.25 5-1.78 1.95-3.52 5.01-3.86 6.79-0.33 1.79-0.33 4.94 0 7 0.34 2.07 1.85 5.18 3.36 6.92 1.52 1.74 4.22 3.77 6 4.5 1.79 0.73 5.39 1.33 8 1.32 2.63-0.01 6.54-0.88 8.75-1.95 2.66-1.28 4.81-3.38 6.4-6.23 1.9-3.41 2.31-5.35 1.96-9.31-0.24-2.78-1.35-6.33-2.5-8-1.13-1.65-3.59-3.76-5.46-4.69-1.87-0.92-5.2-1.94-7.4-2.25-2.4-0.33-5.6 0.03-8 0.9zm0.88 8.86c1.51-1.27 3.95-2.3 5.43-2.28 1.48 0.01 3.41 0.58 4.28 1.25 0.87 0.67 2.16 2.34 2.86 3.71 0.74 1.45 1.02 3.87 0.66 5.75-0.35 1.88-1.77 4.13-3.36 5.33-1.99 1.51-3.57 1.92-5.75 1.48-1.65-0.34-3.82-1.38-4.83-2.33-1.2-1.13-1.86-3.26-1.93-6.16-0.08-3.67 0.37-4.83 2.64-6.75zm34.8-9.17c-2.38 0.52-4.74 1.59-5.25 2.4-0.6 0.93-0.48 2.37 0.32 4.03 0.96 1.97 1.72 2.41 3.25 1.87 1.1-0.39 4.03-0.92 6.5-1.19 3.27-0.35 4.98-0.04 6.25 1.13 0.97 0.89 1.75 2.29 1.75 3.11 0 1.17-1.54 1.56-6.92 1.75-5.06 0.19-7.66 0.79-9.65 2.25-1.5 1.1-3.15 3.35-3.67 5-0.67 2.14-0.56 3.83 0.4 5.89 0.74 1.59 2.58 3.5 4.09 4.25 1.52 0.75 4.67 1.36 7 1.36 2.34-0.01 5.49-0.68 7-1.5 2.44-1.33 2.75-1.33 2.75 0 0 1.11 1.17 1.5 4.5 1.5h4.5c-0.49-24.75-0.53-24.9-3.5-27.97-1.65-1.7-4.57-3.53-6.5-4.06-1.92-0.52-4.62-0.91-6-0.85-1.37 0.05-4.44 0.52-6.82 1.03zm1.94 20.35c0.74-1.01 2.87-1.5 6.5-1.5 3.65 0 5.38 0.41 5.37 1.25-0.01 0.69-0.35 1.75-0.75 2.35-0.41 0.61-1.75 1.62-2.99 2.25-1.23 0.64-3.37 1.15-4.75 1.15-1.5 0-2.9-0.8-3.5-2-0.68-1.37-0.65-2.47 0.12-3.5zm44.38-20.39c-1.65 0.51-3.56 1.38-4.25 1.91-0.86 0.68-1.4 0.52-1.75-0.52-0.34-1.03-1.89-1.5-5-1.5h-4.5v32h10c-0.05-19.16 0.04-19.57 2.68-21.75 1.5-1.23 3.76-2.25 5.03-2.25 2.05 0 2.29-0.47 2.29-4.5 0-2.47-0.33-4.46-0.75-4.41-0.41 0.05-2.1 0.51-3.75 1.02zm-1279.44 0.34c-0.03 0.3 2.84 7.42 6.37 15.8l6.43 15.25 9.64 0.64c9.89-22.97 12.93-30.2 13.13-30.89 0.26-0.86-0.96-1.26-3.88-1.28l-4.25-0.03-9.39 21.56c-2.5-6.2-4.45-10.92-5.94-14.5l-2.72-6.5c-7.23-0.47-9.36-0.36-9.39-0.05zm39.94 15.55v16h10v-32h-10zm99 0v16h10v-32h-10zm383.27-14.81c0.26 0.72 3.35 7.98 6.86 16.13 5.13 11.93 6.15 15.15 5.24 16.5-0.78 1.17-2.53 1.68-5.72 1.68-4.06 0-4.75 0.33-5.87 2.79q-1.27 2.77-0.28 3.72c0.55 0.52 3.03 1.25 5.5 1.63 3.02 0.46 5.62 0.22 7.9-0.73 1.87-0.77 4.18-2.53 5.14-3.91 0.95-1.37 4.99-10.15 8.96-19.5 3.97-9.35 7.39-17.56 7.61-18.25 0.27-0.87-0.96-1.25-4.11-1.25h-4.5c-6.58 16.22-8.72 20.68-9 20.37-0.27-0.31-2.31-4.9-4.53-10.21l-4.03-9.66c-8.46-0.54-9.53-0.3-9.17 0.69zm100.73 14.81v16h10v-32h-10zm158.06-15.55c-0.03 0.3 2.84 7.42 6.37 15.8l6.43 15.25 9.64 0.64c9.89-22.97 12.93-30.2 13.13-30.89 0.26-0.86-0.96-1.26-3.88-1.28l-4.25-0.03-9.39 21.56c-2.5-6.2-4.45-10.92-5.94-14.5l-2.72-6.5c-7.23-0.47-9.36-0.36-9.39-0.05zm-124.06 14.55v4h17v-8h-17z"/>
</svg>