<?xml version="1.0" encoding="UTF-8" standalone="no"?><!DOCTYPE svg PUBLIC "-//W3C//DTD SVG 1.1//EN" "http://www.w3.org/Graphics/SVG/1.1/DTD/svg11.dtd"><svg width="100%" height="100%" viewBox="0 0 308 231" version="1.1" xmlns="http://www.w3.org/2000/svg" xmlns:xlink="http://www.w3.org/1999/xlink" xml:space="preserve" xmlns:serif="http://www.serif.com/" style="fill-rule:evenodd;clip-rule:evenodd;stroke-linejoin:round;stroke-miterlimit:2;"><rect id="SAT-Symbol" serif:id="SAT Symbol" x="0" y="0" width="307.2" height="230.4" style="fill:none;"/><g id="SAT-Symbol1" serif:id="SAT Symbol"><g id="SAT-Symbol2" serif:id="SAT Symbol"><g id="SAT"><path id="T" d="M201.192,103.276l-10.857,-0l-0,24.509c-1.849,1.552 -3.724,3.073 -5.626,4.562c-0.749,0.587 -1.502,1.169 -2.259,1.746l-0.5,0l-0,-30.817l-10.858,-0l0,-7.461l30.1,-0l0,7.461Z" style="fill:#191818;fill-rule:nonzero;"/><path id="A" d="M152.226,95.815l6.934,-0l16.555,38.278l-9.46,0l-3.279,-8.11l-14.781,0l-3.171,8.11l-9.245,0l16.447,-38.278Zm3.225,11.137l-4.622,11.895l9.298,-0l-4.676,-11.895Z" style="fill:#191818;fill-rule:nonzero;"/><path id="S" d="M127.662,105.168c-0.681,-0.865 -1.603,-1.505 -2.768,-1.919c-1.164,-0.415 -2.266,-0.622 -3.305,-0.622c-0.61,0 -1.237,0.072 -1.882,0.216c-0.645,0.145 -1.254,0.37 -1.827,0.676c-0.574,0.307 -1.039,0.712 -1.398,1.217c-0.358,0.504 -0.537,1.117 -0.537,1.838c-0,1.153 0.43,2.036 1.29,2.649c0.86,0.613 1.944,1.135 3.252,1.568c1.308,0.432 2.714,0.865 4.219,1.297c1.505,0.433 2.911,1.046 4.219,1.839c1.308,0.793 2.392,1.856 3.252,3.19c0.86,1.333 1.29,3.117 1.29,5.352c0,2.127 -0.394,3.983 -1.182,5.569c-0.789,1.586 -1.855,2.901 -3.198,3.946c-1.344,1.046 -2.903,1.821 -4.677,2.325c-1.773,0.505 -3.646,0.757 -5.616,0.757c-2.473,0 -4.766,-0.378 -6.88,-1.135c-2.115,-0.757 -4.085,-1.983 -5.913,-3.677l5.966,-6.596c0.86,1.154 1.944,2.046 3.252,2.677c1.308,0.63 2.661,0.946 4.058,0.946c0.681,-0 1.371,-0.081 2.07,-0.243c0.698,-0.163 1.325,-0.406 1.881,-0.73c0.555,-0.325 1.003,-0.739 1.344,-1.244c0.34,-0.504 0.51,-1.099 0.51,-1.784c0,-1.153 -0.439,-2.063 -1.317,-2.73c-0.878,-0.667 -1.979,-1.235 -3.305,-1.703c-1.326,-0.469 -2.759,-0.937 -4.3,-1.406c-1.541,-0.469 -2.974,-1.099 -4.3,-1.892c-1.326,-0.793 -2.428,-1.839 -3.306,-3.136c-0.878,-1.298 -1.317,-3.01 -1.317,-5.136c0,-2.055 0.403,-3.857 1.21,-5.407c0.806,-1.55 1.881,-2.847 3.225,-3.893c1.343,-1.045 2.893,-1.829 4.649,-2.351c1.756,-0.523 3.565,-0.784 5.429,-0.784c2.15,-0 4.228,0.306 6.235,0.919c2.006,0.613 3.816,1.64 5.429,3.082l-5.752,6.325Z" style="fill:#191818;fill-rule:nonzero;"/></g><path id="Trail" d="M73.647,129.652c-15.99,17.458 -19.57,30.677 -15.308,39.196c2.716,5.429 8.605,9.173 16.867,11c11.398,2.521 27.446,1.363 45.519,-3.482c42.477,-11.389 96.166,-43.391 127.039,-96.515c1.117,-1.972 0.424,-4.479 -1.547,-5.597c-1.972,-1.117 -4.479,-0.424 -5.597,1.547c-28.803,52.102 -80.268,84.06 -121.179,95.975c-17.19,5.006 -32.497,6.458 -43.467,4.353c-7.114,-1.365 -12.365,-4.176 -14.863,-8.733c-4.273,-7.792 -0.669,-19.953 13.57,-36.835c0.251,-0.285 0.223,-0.721 -0.062,-0.972c-0.286,-0.251 -0.721,-0.223 -0.972,0.063Z" style="fill:#191818;"/><path id="Cog" d="M230.86,112.674c0.027,0.839 0.04,1.681 0.04,2.526c0,3.356 -0.21,6.665 -0.621,9.91l-8.021,0.152c-0.788,5.487 -2.216,10.768 -4.196,15.764l6.88,4.164c-2.563,6.163 -5.891,11.923 -9.865,17.159l-7.024,-3.912c-3.364,4.28 -7.217,8.155 -11.471,11.538l3.888,7.066c-5.205,3.998 -10.933,7.344 -17.058,9.923l-4.14,-6.921c-4.967,1.992 -10.216,3.429 -15.672,4.221l-0.151,8.068c-3.225,0.414 -6.515,0.625 -9.852,0.625c-3.338,-0 -6.627,-0.211 -9.853,-0.625l-0.144,-8.068c-5.455,-0.792 -10.711,-2.229 -15.679,-4.221l-4.139,6.921c-3.125,-1.316 -6.145,-2.831 -9.044,-4.531c7.597,-1.608 15.092,-3.768 22.337,-6.327c3.133,-1.107 6.241,-2.286 9.32,-3.533c2.359,0.296 4.763,0.449 7.202,0.449c24.552,0 45.512,-15.487 53.75,-37.278c8.406,-7.089 16.288,-14.797 23.513,-23.07Zm-120.695,56.944c-4.077,-3.298 -7.779,-7.052 -11.024,-11.181l-7.018,3.912c-3.975,-5.236 -7.309,-10.996 -9.872,-17.159l6.88,-4.164c-1.98,-4.996 -3.401,-10.277 -4.189,-15.764l-8.028,-0.152c-0.41,-3.245 -0.621,-6.554 -0.621,-9.91c0,-3.358 0.211,-6.667 0.621,-9.91l8.028,-0.145c0.788,-5.488 2.209,-10.775 4.189,-15.771l-6.88,-4.164c2.563,-6.161 5.897,-11.915 9.872,-17.152l7.018,3.905c3.363,-4.28 7.216,-8.157 11.47,-11.538l-3.882,-7.059c5.206,-3.998 10.927,-7.351 17.053,-9.93l4.139,6.921c4.968,-1.991 10.224,-3.421 15.679,-4.214l0.144,-8.075c3.226,-0.412 6.515,-0.625 9.853,-0.625l-0,0c3.337,0 6.627,0.213 9.852,0.625l0.151,8.075c5.456,0.793 10.705,2.223 15.673,4.214l4.139,-6.921c6.125,2.579 11.853,5.932 17.058,9.93l-3.888,7.059c4.254,3.381 8.107,7.258 11.471,11.538l7.024,-3.905c3.974,5.237 7.302,10.991 9.865,17.152l-6.88,4.164c0.917,2.312 1.715,4.687 2.386,7.116c-3.1,4.03 -6.366,7.939 -9.782,11.72c-3.431,-28.636 -27.676,-50.826 -57.069,-50.826c-31.746,0 -57.479,25.883 -57.479,57.816c-0,21.391 11.548,40.071 28.715,50.072c-4.822,1.679 -9.714,3.146 -14.668,4.346Z" style="fill:#191818;"/><path id="Rocket" d="M227.604,70.054c1.562,-2.665 4.971,-11.282 16.735,-12.578c8.33,-14.864 21.826,-18.136 21.826,-18.136c-0,-0 4.442,13.227 -3.618,28.242c5.181,10.7 -0.249,18.196 -1.658,20.946c-10.008,-21.308 -10.012,-21.319 -33.285,-18.474Z" style="fill:#191818;"/></g></g></svg>